<svg width="221" height="19" viewBox="0 0 221 19" fill="none" xmlns="http://www.w3.org/2000/svg">
<path d="M14.5859 11.1328H4.96484V8.0625H14.5859V11.1328ZM15.957 18H4.96484C4.54297 18 4.08203 17.9258 3.58203 17.7773C3.08203 17.6289 2.61719 17.3867 2.1875 17.0508C1.76562 16.707 1.41016 16.2656 1.12109 15.7266C0.839844 15.1797 0.699219 14.5117 0.699219 13.7227V2.73047C0.699219 2.51953 0.738281 2.32031 0.816406 2.13281C0.894531 1.94531 1 1.78125 1.13281 1.64062C1.27344 1.5 1.4375 1.39063 1.625 1.3125C1.8125 1.23437 2.01562 1.19531 2.23438 1.19531H15.957V4.24219H3.74609V13.7227C3.74609 14.1211 3.85156 14.4258 4.0625 14.6367C4.27344 14.8477 4.58203 14.9531 4.98828 14.9531H15.957V18ZM26.5859 7.19531L31.7188 1.19531H35.8789L28.6484 9.62109L35.832 18H31.6953L26.5859 12.0469L21.5 18H17.3516L24.5234 9.62109L17.3281 1.19531H21.4531L26.5859 7.19531ZM54.5469 8.22656C54.5469 8.92188 54.4609 9.54297 54.2891 10.0898C54.1172 10.6367 53.8828 11.1211 53.5859 11.543C53.2969 11.957 52.9609 12.3125 52.5781 12.6094C52.1953 12.9062 51.793 13.1484 51.3711 13.3359C50.957 13.5234 50.5352 13.6602 50.1055 13.7461C49.6836 13.832 49.2852 13.875 48.9102 13.875H42.0195V10.8281H48.9102C49.3008 10.7969 49.6523 10.7188 49.9648 10.5938C50.2852 10.4609 50.5586 10.2852 50.7852 10.0664C51.0117 9.84766 51.1875 9.58594 51.3125 9.28125C51.4375 8.96875 51.5 8.61719 51.5 8.22656V6.84375C51.4609 6.46094 51.3789 6.10938 51.2539 5.78906C51.1289 5.46875 50.957 5.19531 50.7383 4.96875C50.5273 4.74219 50.2695 4.56641 49.9648 4.44141C49.6602 4.30859 49.3086 4.24219 48.9102 4.24219H42.043C41.6367 4.24219 41.3281 4.34766 41.1172 4.55859C40.9062 4.76953 40.8008 5.07422 40.8008 5.47266V18H37.7539V5.47266C37.7539 4.69141 37.8945 4.02734 38.1758 3.48047C38.4648 2.93359 38.8203 2.49219 39.2422 2.15625C39.6719 1.82031 40.1367 1.57813 40.6367 1.42969C41.1367 1.27344 41.5977 1.19531 42.0195 1.19531H48.9102C49.5977 1.19531 50.2148 1.28516 50.7617 1.46484C51.3086 1.63672 51.7891 1.87109 52.2031 2.16797C52.625 2.45703 52.9805 2.79297 53.2695 3.17578C53.5664 3.55859 53.8086 3.96094 53.9961 4.38281C54.1914 4.79688 54.332 5.21875 54.418 5.64844C54.5039 6.07031 54.5469 6.46875 54.5469 6.84375V8.22656ZM72.5938 18H58.6953C58.4766 18 58.2734 17.9609 58.0859 17.8828C57.8984 17.8047 57.7344 17.6992 57.5938 17.5664C57.4609 17.4258 57.3555 17.2617 57.2773 17.0742C57.1992 16.8867 57.1602 16.6836 57.1602 16.4648V1.19531H60.207V14.9531H72.5938V18ZM92.2109 11.2031C92.2109 12.2266 92.0352 13.168 91.6836 14.0273C91.332 14.8867 90.8438 15.6289 90.2188 16.2539C89.5938 16.8789 88.8516 17.3672 87.9922 17.7188C87.1406 18.0625 86.2109 18.2344 85.2031 18.2344H81.0781C80.0703 18.2344 79.1367 18.0625 78.2773 17.7188C77.418 17.3672 76.6758 16.8789 76.0508 16.2539C75.4258 15.6289 74.9336 14.8867 74.5742 14.0273C74.2227 13.168 74.0469 12.2266 74.0469 11.2031V7.99219C74.0469 6.97656 74.2227 6.03906 74.5742 5.17969C74.9336 4.3125 75.4258 3.57031 76.0508 2.95312C76.6758 2.32812 77.418 1.83984 78.2773 1.48828C79.1367 1.13672 80.0703 0.960938 81.0781 0.960938H85.2031C86.2109 0.960938 87.1406 1.13672 87.9922 1.48828C88.8516 1.83984 89.5938 2.32812 90.2188 2.95312C90.8438 3.57031 91.332 4.3125 91.6836 5.17969C92.0352 6.03906 92.2109 6.97656 92.2109 7.99219V11.2031ZM89.1641 7.99219C89.1641 7.39062 89.0664 6.84766 88.8711 6.36328C88.6836 5.87109 88.4141 5.45312 88.0625 5.10938C87.7188 4.75781 87.3008 4.48828 86.8086 4.30078C86.3242 4.10547 85.7891 4.00781 85.2031 4.00781H81.0781C80.4844 4.00781 79.9414 4.10547 79.4492 4.30078C78.9648 4.48828 78.5469 4.75781 78.1953 5.10938C77.8438 5.45312 77.5703 5.87109 77.375 6.36328C77.1875 6.84766 77.0938 7.39062 77.0938 7.99219V11.2031C77.0938 11.8047 77.1875 12.3516 77.375 12.8438C77.5703 13.3281 77.8438 13.7461 78.1953 14.0977C78.5469 14.4414 78.9648 14.7109 79.4492 14.9062C79.9414 15.0938 80.4844 15.1875 81.0781 15.1875H85.1797C85.7734 15.1875 86.3125 15.0938 86.7969 14.9062C87.2891 14.7109 87.7109 14.4414 88.0625 14.0977C88.4141 13.7461 88.6836 13.3281 88.8711 12.8438C89.0664 12.3516 89.1641 11.8047 89.1641 11.2031V7.99219ZM112.016 6.84375C112.016 7.53906 111.93 8.16016 111.758 8.70703C111.586 9.25391 111.352 9.73828 111.055 10.1602C110.766 10.5742 110.43 10.9297 110.047 11.2266C109.664 11.5234 109.262 11.7695 108.84 11.9648C108.426 12.1523 108.004 12.2891 107.574 12.375C107.152 12.4609 106.754 12.5039 106.379 12.5039L112.742 18H108.031L101.68 12.5039H99.4883V9.45703H106.379C106.762 9.42578 107.109 9.34766 107.422 9.22266C107.742 9.08984 108.016 8.91406 108.242 8.69531C108.477 8.47656 108.656 8.21484 108.781 7.91016C108.906 7.59766 108.969 7.24219 108.969 6.84375V4.92188C108.969 4.75 108.945 4.62109 108.898 4.53516C108.859 4.44141 108.805 4.375 108.734 4.33594C108.672 4.28906 108.602 4.26172 108.523 4.25391C108.453 4.24609 108.387 4.24219 108.324 4.24219H98.2695V18H95.2227V2.73047C95.2227 2.51953 95.2617 2.32031 95.3398 2.13281C95.418 1.94531 95.5234 1.78125 95.6562 1.64062C95.7969 1.5 95.9609 1.39063 96.1484 1.3125C96.3359 1.23437 96.5391 1.19531 96.7578 1.19531H108.324C109.004 1.19531 109.578 1.32031 110.047 1.57031C110.516 1.8125 110.895 2.12109 111.184 2.49609C111.48 2.86328 111.691 3.26172 111.816 3.69141C111.949 4.12109 112.016 4.52344 112.016 4.89844V6.84375ZM128.891 11.1328H119.27V8.0625H128.891V11.1328ZM130.262 18H119.27C118.848 18 118.387 17.9258 117.887 17.7773C117.387 17.6289 116.922 17.3867 116.492 17.0508C116.07 16.707 115.715 16.2656 115.426 15.7266C115.145 15.1797 115.004 14.5117 115.004 13.7227V2.73047C115.004 2.51953 115.043 2.32031 115.121 2.13281C115.199 1.94531 115.305 1.78125 115.438 1.64062C115.578 1.5 115.742 1.39063 115.93 1.3125C116.117 1.23437 116.32 1.19531 116.539 1.19531H130.262V4.24219H118.051V13.7227C118.051 14.1211 118.156 14.4258 118.367 14.6367C118.578 14.8477 118.887 14.9531 119.293 14.9531H130.262V18Z" fill="#B9B9B9"/>
<path d="M160.578 18H157.508V7.99219L152.105 17.4961C151.973 17.7383 151.785 17.9219 151.543 18.0469C151.309 18.1719 151.055 18.2344 150.781 18.2344C150.516 18.2344 150.266 18.1719 150.031 18.0469C149.805 17.9219 149.625 17.7383 149.492 17.4961L144.066 7.99219V18H141.02V2.49609C141.02 2.14453 141.121 1.83203 141.324 1.55859C141.535 1.28516 141.809 1.10156 142.145 1.00781C142.309 0.96875 142.473 0.957031 142.637 0.972656C142.801 0.980469 142.957 1.01563 143.105 1.07812C143.262 1.13281 143.402 1.21484 143.527 1.32422C143.652 1.42578 143.758 1.55078 143.844 1.69922L150.781 13.7578L157.719 1.69922C157.898 1.40234 158.145 1.19141 158.457 1.06641C158.777 0.941406 159.109 0.921875 159.453 1.00781C159.781 1.10156 160.051 1.28516 160.262 1.55859C160.473 1.83203 160.578 2.14453 160.578 2.49609V18ZM180.617 18H177.57V13.875H166.859V18H163.812V9.59766C163.812 8.37109 164.023 7.24219 164.445 6.21094C164.867 5.17969 165.453 4.29297 166.203 3.55078C166.953 2.80859 167.84 2.23047 168.863 1.81641C169.887 1.40234 171.004 1.19531 172.215 1.19531H179.082C179.293 1.19531 179.492 1.23437 179.68 1.3125C179.867 1.39063 180.031 1.5 180.172 1.64062C180.312 1.78125 180.422 1.94531 180.5 2.13281C180.578 2.32031 180.617 2.51953 180.617 2.73047V18ZM166.859 10.8281H177.57V4.24219H172.215C172.121 4.24219 171.922 4.25781 171.617 4.28906C171.32 4.3125 170.973 4.37891 170.574 4.48828C170.184 4.59766 169.77 4.76562 169.332 4.99219C168.895 5.21875 168.492 5.53125 168.125 5.92969C167.758 6.32812 167.453 6.82812 167.211 7.42969C166.977 8.02344 166.859 8.74609 166.859 9.59766V10.8281ZM200.961 6.84375C200.961 7.53906 200.875 8.16016 200.703 8.70703C200.531 9.25391 200.297 9.73828 200 10.1602C199.711 10.5742 199.375 10.9297 198.992 11.2266C198.609 11.5234 198.207 11.7695 197.785 11.9648C197.371 12.1523 196.949 12.2891 196.52 12.375C196.098 12.4609 195.699 12.5039 195.324 12.5039L201.688 18H196.977L190.625 12.5039H188.434V9.45703H195.324C195.707 9.42578 196.055 9.34766 196.367 9.22266C196.688 9.08984 196.961 8.91406 197.188 8.69531C197.422 8.47656 197.602 8.21484 197.727 7.91016C197.852 7.59766 197.914 7.24219 197.914 6.84375V4.92188C197.914 4.75 197.891 4.62109 197.844 4.53516C197.805 4.44141 197.75 4.375 197.68 4.33594C197.617 4.28906 197.547 4.26172 197.469 4.25391C197.398 4.24609 197.332 4.24219 197.27 4.24219H187.215V18H184.168V2.73047C184.168 2.51953 184.207 2.32031 184.285 2.13281C184.363 1.94531 184.469 1.78125 184.602 1.64062C184.742 1.5 184.906 1.39063 185.094 1.3125C185.281 1.23437 185.484 1.19531 185.703 1.19531H197.27C197.949 1.19531 198.523 1.32031 198.992 1.57031C199.461 1.8125 199.84 2.12109 200.129 2.49609C200.426 2.86328 200.637 3.26172 200.762 3.69141C200.895 4.12109 200.961 4.52344 200.961 4.89844V6.84375ZM220.168 13.0547C220.168 13.6562 220.09 14.1992 219.934 14.6836C219.785 15.1602 219.586 15.582 219.336 15.9492C219.086 16.3164 218.793 16.6289 218.457 16.8867C218.121 17.1445 217.773 17.3555 217.414 17.5195C217.055 17.6836 216.688 17.8047 216.312 17.8828C215.945 17.9609 215.598 18 215.27 18H203.516V14.9531H215.27C215.855 14.9531 216.309 14.7812 216.629 14.4375C216.957 14.0938 217.121 13.6328 217.121 13.0547C217.121 12.7734 217.078 12.5156 216.992 12.2812C216.906 12.0469 216.781 11.8438 216.617 11.6719C216.461 11.5 216.266 11.3672 216.031 11.2734C215.805 11.1797 215.551 11.1328 215.27 11.1328H208.262C207.77 11.1328 207.238 11.0469 206.668 10.875C206.098 10.6953 205.566 10.4102 205.074 10.0195C204.59 9.62891 204.184 9.11719 203.855 8.48438C203.535 7.85156 203.375 7.07812 203.375 6.16406C203.375 5.25 203.535 4.48047 203.855 3.85547C204.184 3.22266 204.59 2.71094 205.074 2.32031C205.566 1.92188 206.098 1.63672 206.668 1.46484C207.238 1.28516 207.77 1.19531 208.262 1.19531H218.633V4.24219H208.262C207.684 4.24219 207.23 4.41797 206.902 4.76953C206.582 5.12109 206.422 5.58594 206.422 6.16406C206.422 6.75 206.582 7.21484 206.902 7.55859C207.23 7.89453 207.684 8.0625 208.262 8.0625H215.27H215.293C215.621 8.07031 215.969 8.11719 216.336 8.20312C216.703 8.28125 217.066 8.40625 217.426 8.57812C217.793 8.75 218.141 8.96875 218.469 9.23438C218.797 9.49219 219.086 9.80469 219.336 10.1719C219.594 10.5391 219.797 10.9609 219.945 11.4375C220.094 11.9141 220.168 12.4531 220.168 13.0547Z" fill="#CF3F1D"/>
</svg>
